<svg version="1" xmlns="http://www.w3.org/2000/svg" width="333.333" height="333.333" viewBox="0 0 250.000000 250.000000"><path d="M78.5 27.8c-3.3.2-9.6 1.3-16 2.8-.5.1-2.1.4-3.5.7-1.4.3-3.6 1-5 1.5-5.7 2.3-8.5 3.3-8.7 3.3-.2-.1-3.3 1.5-6.9 3.5C30.1 44.1 22 49.8 22 51.3c0 .6-.3.8-.6.5C20.1 50.4 11 61.4 6.2 70c-9.2 16.8-6.3 35.3 6.4 40.6 6.5 2.7 19.3 1.3 22.1-2.5 1.5-2.1 0-3.9-4.2-4.7-1.8-.3-4.8-1.8-6.6-3.4-3.3-2.7-3.4-2.9-3.4-10.6 0-4.4.3-9.3.7-11.1.7-3.8 6.3-15.4 8.6-18 1-1 2.9-3.3 4.5-5.1 1.5-1.9 2.7-3 2.7-2.5 0 .4 1-.3 2.3-1.7 3.6-4.1 17.9-12.3 21.5-12.3.6 0 1.2-.5 1.2-1 0-.6.3-.8.6-.5.3.3 2.6 0 5.2-.6 12.9-3.4 28.5.5 37.1 9.4 5.7 5.9 8 12.4 7.6 21.2-.5 9-.9 11.2-4 19.4-3.1 8.3-8.2 15.9-14.5 21.8-5.3 5-8.4 5.6-8.6 1.8-.1-1.2-.2-3.1-.3-4.1-.2-2.8-2.7-5-5-4.4-2.5.6-7.5 5.1-9 8.2-.7 1.2-1.4 4.4-1.6 7-.2 2.5-.4 4.9-.4 5.3-.1.5-2.3.8-5 .8-5.2 0-6.5.8-5.5 3.4.6 1.6 7.1 3.9 9.5 3.4.8-.2 1.7 1.3 2.2 3.7 4.8 21.4 12.2 38.5 20.4 47.2 6.3 6.7 9.3 8.4 13.7 8.1 3.4-.2 3.7-.4 3.1-2.7-.4-1.4-1.9-4.1-3.4-6-3.3-4.3-9.8-17.6-10.7-21.8-.2-1.3-3.2-10.7-4.1-13.3-.3-.8-.7-2.6-.9-4-.1-1.4-.7-5-1.2-8-1.1-6.2-.7-7.2 4.1-9.1 3.5-1.4 13-7.7 13.5-9.1.2-.4.8-.8 1.3-.8 1.5 0 9-7.9 13.9-14.5 9.4-12.7 13.4-26.2 11.7-39.5-2.6-19.9-18.3-31.7-43.2-32.3-3.3-.1-7.8-.1-10 .1z"/><path d="M67.6 50.3c-5.8 3.5-8.2 7.2-13 20.3-2.6 7.1-5.3 14.5-6.1 16.4-.8 1.9-5.7 15.4-11 30s-12.3 33.6-15.6 42.4c-3.2 8.7-5.9 16.6-5.9 17.5 0 6 9.5 3.6 16.8-4.2 1.4-1.5 6.2-12.9 11.8-28.3 5.2-14.3 9.9-26.7 10.5-27.7.5-1 .7-2.2.4-2.7-.4-.6-.1-1 .4-1 .6 0 1.1-.7 1.1-1.6 0-.9.6-3 1.4-4.7 3.8-9 18.5-48.8 19.6-53.2 1.3-5.5-3.8-7.1-10.4-3.2zM205.5 56.5c-24 4.7-44.9 21-51.1 39.8-1.9 5.8-2.5 17.3-1.2 22.6.5 2 1.1 4.7 1.4 6.1 1.3 6.2 11.2 21.7 21 33 13.2 15.2 15.5 19 15.8 26.4.9 19.8-23.3 36.2-40.8 27.6-5.8-2.9-8.4-7-8.1-12.9.5-8.3 6.2-13.9 14.9-14.5 3.8-.3 5 .1 7 2 1.3 1.4 2.9 3.9 3.6 5.7 1.9 5.2 2.6 6.2 4.5 6.2 5 0 7.6-11.2 3.7-16.4-7.6-10.5-31.6-8.4-42.9 3.8-5.9 6.3-7.7 13.2-6.2 23.5.5 3.5 8.2 10.2 14 12.1 7.8 2.7 29.9 2.1 29.9-.7 0-.5.4-.7.9-.4 1.5 1 14-6.2 18.8-10.7 4.5-4.2 11.3-13.5 11.7-15.9.1-.7.4-1.8.7-2.3.6-.9 1.7-4.9 2.5-8.5.2-.8.4-4 .5-7 .1-7-2.6-14.1-9.1-23.4-4.3-6.2-6.3-8.7-12.3-15.6-5.7-6.5-12.8-20.2-14.4-28-1.2-5.8-.9-15.7.7-19.5.6-1.7 1-3 .8-3-.5-.1 2.6-3.7 7.3-8.5 8-8.2 23.5-14.1 35.1-13.5 15.7.9 22.4 14.5 15.1 31-5.4 12.2-17.5 18.7-34.5 18.6-10.5 0-13.4 1.2-10 4.2 7.4 6.7 25.9 6.9 38.7.5 12-6.2 21.8-17.6 24.8-29.1 6.2-23.7-13.5-39-42.8-33.2z"/><path d="M122.9 110.4c-9.5 17.7-8.6 16.5-12.5 17.1-10.3 1.6-17.4 3.3-17.4 4.1 0 .3 3.2 4.1 7.1 8.4 7 7.7 7.1 8 6.5 12.2-.3 2.4-.9 7.2-1.2 10.7-.6 6.3-.6 6.3 1.7 5.6 1.3-.4 2.7-1.2 3-1.7.3-.5.8-.9 1-.8.2.1 2.9-.9 5.9-2.3 6.2-2.8 9.8-3.8 10.2-2.8.4.8 9.2 5.1 10.6 5.1.6 0 1.2.4 1.4 1 .2.5 1.4 1.1 2.8 1.2 2 .2 2.5-.1 2.3-1.7-.2-1.1-.5-4.5-.8-7.5-.3-3-.7-6.8-.9-8.3-.5-2.9 1-4.9 9.7-14.1 3.4-3.7 4.3-5.8 2.4-5.7-.3 0-2.1-.5-3.9-1-1.8-.5-5.3-1.2-7.8-1.5-5.8-.8-9.3-2.2-8.6-3.3.4-.5.3-1.1-.2-1.3-.4-.1-2.5-3.5-4.6-7.3-4.8-8.9-5.1-9.2-6.7-6.1z"/></svg>